<svg width="196" height="75" viewBox="0 0 196 75" fill="none" xmlns="http://www.w3.org/2000/svg">
<path d="M22.0181 11.6274C22.0178 23.9776 22.0167 36.225 22.0167 47.053C22.0167 51.8976 20.5112 53.0231 17.9184 53.0919C16.0456 53.0919 13.1712 52.175 11.6274 51.1289V59.9934C13.8625 61.7411 17.3616 62.5504 19.8348 62.5504C24.1545 62.5504 30.805 59.055 30.805 48.1716C30.8059 35.8063 30.805 27.6733 30.805 15.2917H38.8697L32.9894 29.7391H39.9846L39.92 49.7765L56.0393 21.1113H47.9569L51.9786 15.2917H57.3916V62.8931H66.1811V11.6274H50.957L42.5136 24.7756H49.8636L42.434 39.3986L44.184 27.0433H37.7709L43.6512 11.6274H22.0181Z" fill="black"/>
<path d="M22.0181 11.6274C22.0178 23.9776 22.0167 36.225 22.0167 47.053C22.0167 51.8976 20.5112 53.0231 17.9184 53.0919C16.0456 53.0919 13.1712 52.175 11.6274 51.1289V59.9934C13.8625 61.7411 17.3616 62.5504 19.8348 62.5504C24.1545 62.5504 30.805 59.055 30.805 48.1716C30.8059 35.8063 30.805 27.6733 30.805 15.2917H38.8697L32.9894 29.7391H39.9846L39.92 49.7765L56.0393 21.1113H47.9569L51.9786 15.2917H57.3916V62.8931H66.1811V11.6274H50.957L42.5136 24.7756H49.8636L42.434 39.3986L44.184 27.0433H37.7709L43.6512 11.6274H22.0181Z" fill="black"/>
<path d="M57.3907 11.63C57.3904 23.9802 57.3894 36.2276 57.3894 47.0556C57.3894 51.9003 55.8838 53.0258 53.291 53.0946C51.4183 53.0946 48.5439 52.1776 47 51.1315V59.996C49.2351 61.7437 52.7342 62.553 55.2074 62.553C59.5271 62.553 66.1776 59.0576 66.1776 48.1743C66.1785 35.809 66.1776 27.6759 66.1776 15.2943H74.2423L68.362 29.7418H75.3572L75.2926 49.7792L91.4119 21.1139H83.3295L87.3512 15.2943H92.7642V62.8958H101.554V11.63H86.3297L77.8862 24.7783H85.2362L77.8066 39.4013L79.5566 27.046H73.1436L79.0239 11.63H57.3907Z" fill="black"/>
<ellipse cx="17.5" cy="52.5" rx="12.5" ry="10.5" fill="black"/>
<ellipse cx="57.5" cy="60.5" rx="9.5" ry="7.5" fill="black"/>
<ellipse cx="54" cy="59.5" rx="13" ry="10.5" fill="black"/>
<ellipse cx="91" cy="58.5" rx="13" ry="10.5" fill="black"/>
<path d="M40.087 42.5L54 18.9638H47.4783L50.9565 13.5H38.3478L34 25.6884H40.087V42.5Z" fill="black" stroke="#8800FF" stroke-width="4"/>
<path d="M75.3478 40L91 18.9638H84.4783L87.9565 13.5H75.3478L70 25.6884H77.087L75.3478 40Z" fill="black" stroke="#8800FF" stroke-width="4"/>
<path d="M132.254 37.3125L132.137 42.293L123.699 42.5859L123.523 37.8398C123.133 38.4258 122.664 38.9922 122.117 39.5391C121.59 40.0664 121.004 40.5352 120.359 40.9453C119.734 41.3555 119.061 41.6875 118.338 41.9414C117.635 42.1758 116.922 42.293 116.199 42.293C115.301 42.293 114.539 42.1465 113.914 41.8535C113.289 41.5605 112.762 41.1602 112.332 40.6523C111.902 40.1445 111.561 39.5684 111.307 38.9238C111.053 38.2598 110.857 37.5664 110.721 36.8438C110.584 36.1016 110.496 35.3594 110.457 34.6172C110.418 33.8555 110.398 33.1328 110.398 32.4492C110.398 29.793 110.428 27.1465 110.486 24.5098C110.564 21.8535 110.633 19.1875 110.691 16.5117L107.703 16.2188L108.289 11.5312L115.848 11.9414C115.75 15.457 115.652 18.9336 115.555 22.3711C115.477 25.8086 115.438 29.2852 115.438 32.8008C115.438 33.25 115.486 33.7188 115.584 34.207C115.682 34.6953 115.838 35.1445 116.053 35.5547C116.287 35.9453 116.59 36.2676 116.961 36.5215C117.332 36.7754 117.801 36.9023 118.367 36.9023C119.227 36.9023 119.949 36.668 120.535 36.1992C121.141 35.7109 121.629 35.1152 122 34.4121C122.371 33.709 122.635 32.9473 122.791 32.127C122.967 31.3066 123.074 30.5547 123.113 29.8711C123.23 27.7227 123.299 25.5742 123.318 23.4258C123.338 21.2773 123.367 19.1289 123.406 16.9805H120.828L120.535 12.2344L128.445 12.1172L127.977 37.0195L132.254 37.3125ZM150.975 35.2031C150.975 36.2969 150.76 37.3027 150.33 38.2207C149.92 39.1191 149.354 39.9102 148.631 40.5938C147.908 41.2578 147.068 41.7754 146.111 42.1465C145.174 42.5176 144.178 42.7031 143.123 42.7031C142.146 42.7031 141.258 42.4395 140.457 41.9121C139.656 41.3848 138.963 40.7695 138.377 40.0664L137.732 42.5859L134.041 42.293L134.334 32.5664L139.959 32.625C139.92 32.8594 139.891 33.1035 139.871 33.3574C139.852 33.6113 139.842 33.8555 139.842 34.0898C139.842 34.5586 139.9 35.0176 140.018 35.4668C140.135 35.8965 140.311 36.2871 140.545 36.6387C140.779 36.9902 141.082 37.2734 141.453 37.4883C141.844 37.6836 142.303 37.7812 142.83 37.7812C143.201 37.7812 143.543 37.6934 143.855 37.5176C144.188 37.3223 144.461 37.0781 144.676 36.7852C144.91 36.4922 145.086 36.1699 145.203 35.8184C145.34 35.4668 145.408 35.125 145.408 34.793C145.408 33.9531 145.213 33.2109 144.822 32.5664C144.451 31.9023 143.973 31.3066 143.387 30.7793C142.801 30.252 142.156 29.7832 141.453 29.373C140.75 28.9434 140.076 28.5625 139.432 28.2305C138.377 27.6836 137.498 27.1074 136.795 26.502C136.111 25.8965 135.564 25.2324 135.154 24.5098C134.744 23.7676 134.451 22.9473 134.275 22.0488C134.119 21.1504 134.041 20.125 134.041 18.9727C134.041 17.8984 134.246 16.9023 134.656 15.9844C135.086 15.0664 135.662 14.2754 136.385 13.6113C137.107 12.9277 137.938 12.4004 138.875 12.0293C139.832 11.6582 140.838 11.4727 141.893 11.4727C142.869 11.4727 143.758 11.7363 144.559 12.2637C145.359 12.791 146.053 13.4062 146.639 14.1094L147.283 11.5898L150.975 11.8828L150.682 21.6094L145.057 21.5508C145.096 21.3164 145.125 21.0723 145.145 20.8184C145.164 20.5645 145.174 20.3203 145.174 20.0859C145.174 19.6172 145.115 19.168 144.998 18.7383C144.881 18.2891 144.705 17.8887 144.471 17.5371C144.236 17.1855 143.924 16.9121 143.533 16.7168C143.162 16.502 142.713 16.3945 142.186 16.3945C141.814 16.3945 141.473 16.4922 141.16 16.6875C140.848 16.8633 140.574 17.0977 140.34 17.3906C140.105 17.6836 139.92 18.0059 139.783 18.3574C139.666 18.709 139.607 19.0508 139.607 19.3828C139.607 20.2422 139.783 21.0039 140.135 21.668C140.506 22.332 140.965 22.9277 141.512 23.4551C142.078 23.9824 142.703 24.4609 143.387 24.8906C144.09 25.3008 144.783 25.6719 145.467 26.0039C146.482 26.5312 147.332 27.0977 148.016 27.7031C148.719 28.3086 149.285 28.9824 149.715 29.7246C150.164 30.4668 150.486 31.2871 150.682 32.1855C150.877 33.084 150.975 34.0898 150.975 35.2031ZM172.186 24.2461C172.186 25.8477 172.127 27.4102 172.01 28.9336L159.412 29.168C159.412 29.5781 159.432 30.0762 159.471 30.6621C159.51 31.2285 159.568 31.834 159.646 32.4785C159.744 33.1035 159.871 33.7285 160.027 34.3535C160.203 34.959 160.428 35.5156 160.701 36.0234C160.975 36.5117 161.307 36.9121 161.697 37.2246C162.107 37.5176 162.596 37.6641 163.162 37.6641C163.768 37.6641 164.285 37.5078 164.715 37.1953C165.164 36.8633 165.525 36.4629 165.799 35.9941C166.092 35.5059 166.316 34.9785 166.473 34.4121C166.629 33.8457 166.736 33.3086 166.795 32.8008H171.893C171.717 33.9141 171.424 35.0371 171.014 36.1699C170.604 37.3027 170.057 38.3281 169.373 39.2461C168.689 40.1641 167.859 40.916 166.883 41.502C165.906 42.0684 164.764 42.3516 163.455 42.3516C162.088 42.3516 160.906 42.0977 159.91 41.5898C158.934 41.0625 158.104 40.3691 157.42 39.5098C156.736 38.6504 156.18 37.6641 155.75 36.5508C155.32 35.418 154.988 34.2559 154.754 33.0645C154.539 31.8535 154.393 30.6426 154.314 29.4316C154.236 28.2207 154.197 27.0977 154.197 26.0625C154.197 25.125 154.246 24.1094 154.344 23.0156C154.461 21.9219 154.646 20.8379 154.9 19.7637C155.154 18.6895 155.496 17.6543 155.926 16.6582C156.375 15.6621 156.932 14.793 157.596 14.0508C158.26 13.2891 159.051 12.6836 159.969 12.2344C160.887 11.7656 161.951 11.5312 163.162 11.5312C165.232 11.5312 166.863 11.8633 168.055 12.5273C169.246 13.1719 170.145 14.0703 170.75 15.2227C171.375 16.3555 171.766 17.7031 171.922 19.2656C172.098 20.8086 172.186 22.4688 172.186 24.2461ZM167.088 22.5469C167.088 21.9609 167.049 21.2969 166.971 20.5547C166.912 19.8125 166.756 19.1094 166.502 18.4453C166.268 17.7812 165.916 17.2246 165.447 16.7754C164.979 16.3262 164.354 16.1016 163.572 16.1016C162.889 16.1016 162.312 16.2578 161.844 16.5703C161.375 16.8633 160.984 17.2539 160.672 17.7422C160.359 18.2305 160.115 18.7969 159.939 19.4414C159.764 20.0664 159.637 20.7109 159.559 21.375C159.48 22.0195 159.422 22.6543 159.383 23.2793C159.363 23.9043 159.354 24.4609 159.354 24.9492H166.912C167.029 24.1289 167.088 23.3281 167.088 22.5469Z" fill="black"/>
</svg>
