<svg width="544" height="180" viewBox="0 0 544 180" fill="none" xmlns="http://www.w3.org/2000/svg">
<mask id="path-1-inside-1_102_112" fill="white">
<path d="M277.076 140C274.233 140 271.117 138.961 267.728 136.884C264.448 134.697 261.66 132.237 259.364 129.504C257.068 126.661 255.92 124.365 255.92 122.616C255.92 120.867 256.412 118.352 257.396 115.072C258.489 111.792 259.583 108.512 260.676 105.232C261.879 101.952 262.644 99.8747 262.972 99C264.393 95.1733 265.651 91.5653 266.744 88.176C267.947 84.7867 268.548 82.4907 268.548 81.288C268.548 80.4133 268.001 79.484 266.908 78.5C265.924 77.4067 264.393 76.0947 262.316 74.564C259.911 72.7053 258.107 71.2293 256.904 70.136C255.811 69.0427 255.264 67.8947 255.264 66.692C255.264 64.396 256.303 61.7173 258.38 58.656C260.567 55.5947 263.081 52.9707 265.924 50.784C268.876 48.5973 271.391 47.504 273.468 47.504C275.764 47.504 278.388 48.5427 281.34 50.62C284.401 52.6973 287.025 55.1027 289.212 57.836C291.508 60.46 292.656 62.4827 292.656 63.904C292.656 70.6827 291.508 78.828 289.212 88.34C286.916 97.852 283.964 107.309 280.356 116.712C287.572 110.699 294.023 104.029 299.708 96.704C305.393 89.3787 309.384 82.8187 311.68 77.024C311.899 69.9173 312.719 63.9587 314.14 59.148C315.671 54.3373 317.42 51.932 319.388 51.932C322.231 51.932 325.347 52.9707 328.736 55.048C332.235 57.016 335.187 59.3667 337.592 62.1C339.997 64.724 341.2 66.8013 341.2 68.332C341.091 70.628 340.052 74.9467 338.084 81.288C336.116 87.52 333.383 95.556 329.884 105.396C327.807 111.519 326.604 115.017 326.276 115.892C329.447 114.471 332.289 112.995 334.804 111.464C337.428 109.824 340.161 107.801 343.004 105.396C347.815 107.036 351.368 109.332 353.664 112.284C356.069 115.127 357.272 118.407 357.272 122.124C357.272 124.748 355.413 127.481 351.696 130.324C347.979 133.057 343.551 135.353 338.412 137.212C333.273 139.071 328.9 140 325.292 140C322.996 140 320.263 139.071 317.092 137.212C313.921 135.244 311.079 133.057 308.564 130.652C306.159 128.137 304.956 126.279 304.956 125.076C304.956 123.873 305.339 122.397 306.104 120.648C306.979 118.899 307.908 117.04 308.892 115.072C309.985 112.995 310.805 111.519 311.352 110.644L307.252 108.348C301.239 119.391 296.045 127.427 291.672 132.456C287.408 137.485 282.543 140 277.076 140ZM413.965 67.02C409.045 70.7373 405.054 74.4 401.993 78.008C399.041 81.616 397.565 84.6773 397.565 87.192C397.565 88.3947 398.603 89.652 400.681 90.964C402.758 92.1667 406.202 93.8613 411.013 96.048C418.666 99.5467 424.679 102.827 429.053 105.888C433.426 108.84 435.613 112.284 435.613 116.22C435.613 120.156 433.371 123.983 428.889 127.7C424.515 131.308 419.049 134.26 412.489 136.556C405.929 138.852 399.806 140 394.121 140C389.857 140 385.374 139.125 380.673 137.376C375.971 135.517 372.035 133.221 368.865 130.488C365.694 127.645 364.109 124.967 364.109 122.452C364.109 117.969 365.53 114.416 368.373 111.792C371.325 109.059 375.151 107.692 379.853 107.692C382.039 107.692 384.281 108.02 386.577 108.676C388.435 114.58 390.021 118.789 391.333 121.304C398.002 119.555 403.961 116.603 409.209 112.448C400.025 108.512 391.606 104.084 383.953 99.164C376.409 94.244 372.637 89.652 372.637 85.388C372.637 81.0147 374.659 75.8213 378.705 69.808C382.75 63.6853 387.889 58.4373 394.121 54.064C400.462 49.5813 406.913 47.34 413.473 47.34C417.955 47.34 422.219 48.652 426.265 51.276C430.419 53.9 433.754 57.18 436.269 61.116C438.783 65.052 440.041 68.8787 440.041 72.596C440.041 76.204 438.619 79.156 435.777 81.452C433.043 83.6387 429.545 84.732 425.281 84.732C422.547 84.732 419.759 84.1853 416.917 83.092C416.698 78.7187 415.714 73.3613 413.965 67.02ZM482.04 140C476.792 140 471.325 138.305 465.64 134.916C459.955 131.417 455.253 127.153 451.536 122.124C447.819 117.095 445.96 112.339 445.96 107.856C445.96 99.8747 447.819 91.128 451.536 81.616C455.363 72.104 460.611 64.068 467.28 57.508C473.949 50.8387 481.493 47.504 489.912 47.504C495.925 47.504 501.337 48.816 506.148 51.44C511.068 54.064 514.895 57.344 517.628 61.28C520.361 65.216 521.728 69.0427 521.728 72.76C521.728 77.352 519.651 81.8893 515.496 86.372C511.341 90.7453 505.547 94.6267 498.112 98.016C490.677 101.296 482.204 103.647 472.692 105.068C472.583 106.38 472.528 108.348 472.528 110.972C472.528 114.252 472.637 116.712 472.856 118.352C478.323 117.805 483.735 116.329 489.092 113.924C494.449 111.519 500.299 108.129 506.64 103.756C510.904 105.068 514.129 107.145 516.316 109.988C518.503 112.831 519.596 116.22 519.596 120.156C519.596 123.436 517.573 126.661 513.528 129.832C509.592 132.893 504.672 135.353 498.768 137.212C492.864 139.071 487.288 140 482.04 140ZM475.152 92.768C481.821 90.3627 487.397 87.3013 491.88 83.584C496.363 79.8667 498.604 76.696 498.604 74.072C498.604 71.0107 496.472 68.9333 492.208 67.84C488.053 70.9013 484.5 74.564 481.548 78.828C478.705 83.092 476.573 87.7387 475.152 92.768Z"/>
</mask>
<path d="M277.076 140C274.233 140 271.117 138.961 267.728 136.884C264.448 134.697 261.66 132.237 259.364 129.504C257.068 126.661 255.92 124.365 255.92 122.616C255.92 120.867 256.412 118.352 257.396 115.072C258.489 111.792 259.583 108.512 260.676 105.232C261.879 101.952 262.644 99.8747 262.972 99C264.393 95.1733 265.651 91.5653 266.744 88.176C267.947 84.7867 268.548 82.4907 268.548 81.288C268.548 80.4133 268.001 79.484 266.908 78.5C265.924 77.4067 264.393 76.0947 262.316 74.564C259.911 72.7053 258.107 71.2293 256.904 70.136C255.811 69.0427 255.264 67.8947 255.264 66.692C255.264 64.396 256.303 61.7173 258.38 58.656C260.567 55.5947 263.081 52.9707 265.924 50.784C268.876 48.5973 271.391 47.504 273.468 47.504C275.764 47.504 278.388 48.5427 281.34 50.62C284.401 52.6973 287.025 55.1027 289.212 57.836C291.508 60.46 292.656 62.4827 292.656 63.904C292.656 70.6827 291.508 78.828 289.212 88.34C286.916 97.852 283.964 107.309 280.356 116.712C287.572 110.699 294.023 104.029 299.708 96.704C305.393 89.3787 309.384 82.8187 311.68 77.024C311.899 69.9173 312.719 63.9587 314.14 59.148C315.671 54.3373 317.42 51.932 319.388 51.932C322.231 51.932 325.347 52.9707 328.736 55.048C332.235 57.016 335.187 59.3667 337.592 62.1C339.997 64.724 341.2 66.8013 341.2 68.332C341.091 70.628 340.052 74.9467 338.084 81.288C336.116 87.52 333.383 95.556 329.884 105.396C327.807 111.519 326.604 115.017 326.276 115.892C329.447 114.471 332.289 112.995 334.804 111.464C337.428 109.824 340.161 107.801 343.004 105.396C347.815 107.036 351.368 109.332 353.664 112.284C356.069 115.127 357.272 118.407 357.272 122.124C357.272 124.748 355.413 127.481 351.696 130.324C347.979 133.057 343.551 135.353 338.412 137.212C333.273 139.071 328.9 140 325.292 140C322.996 140 320.263 139.071 317.092 137.212C313.921 135.244 311.079 133.057 308.564 130.652C306.159 128.137 304.956 126.279 304.956 125.076C304.956 123.873 305.339 122.397 306.104 120.648C306.979 118.899 307.908 117.04 308.892 115.072C309.985 112.995 310.805 111.519 311.352 110.644L307.252 108.348C301.239 119.391 296.045 127.427 291.672 132.456C287.408 137.485 282.543 140 277.076 140ZM413.965 67.02C409.045 70.7373 405.054 74.4 401.993 78.008C399.041 81.616 397.565 84.6773 397.565 87.192C397.565 88.3947 398.603 89.652 400.681 90.964C402.758 92.1667 406.202 93.8613 411.013 96.048C418.666 99.5467 424.679 102.827 429.053 105.888C433.426 108.84 435.613 112.284 435.613 116.22C435.613 120.156 433.371 123.983 428.889 127.7C424.515 131.308 419.049 134.26 412.489 136.556C405.929 138.852 399.806 140 394.121 140C389.857 140 385.374 139.125 380.673 137.376C375.971 135.517 372.035 133.221 368.865 130.488C365.694 127.645 364.109 124.967 364.109 122.452C364.109 117.969 365.53 114.416 368.373 111.792C371.325 109.059 375.151 107.692 379.853 107.692C382.039 107.692 384.281 108.02 386.577 108.676C388.435 114.58 390.021 118.789 391.333 121.304C398.002 119.555 403.961 116.603 409.209 112.448C400.025 108.512 391.606 104.084 383.953 99.164C376.409 94.244 372.637 89.652 372.637 85.388C372.637 81.0147 374.659 75.8213 378.705 69.808C382.75 63.6853 387.889 58.4373 394.121 54.064C400.462 49.5813 406.913 47.34 413.473 47.34C417.955 47.34 422.219 48.652 426.265 51.276C430.419 53.9 433.754 57.18 436.269 61.116C438.783 65.052 440.041 68.8787 440.041 72.596C440.041 76.204 438.619 79.156 435.777 81.452C433.043 83.6387 429.545 84.732 425.281 84.732C422.547 84.732 419.759 84.1853 416.917 83.092C416.698 78.7187 415.714 73.3613 413.965 67.02ZM482.04 140C476.792 140 471.325 138.305 465.64 134.916C459.955 131.417 455.253 127.153 451.536 122.124C447.819 117.095 445.96 112.339 445.96 107.856C445.96 99.8747 447.819 91.128 451.536 81.616C455.363 72.104 460.611 64.068 467.28 57.508C473.949 50.8387 481.493 47.504 489.912 47.504C495.925 47.504 501.337 48.816 506.148 51.44C511.068 54.064 514.895 57.344 517.628 61.28C520.361 65.216 521.728 69.0427 521.728 72.76C521.728 77.352 519.651 81.8893 515.496 86.372C511.341 90.7453 505.547 94.6267 498.112 98.016C490.677 101.296 482.204 103.647 472.692 105.068C472.583 106.38 472.528 108.348 472.528 110.972C472.528 114.252 472.637 116.712 472.856 118.352C478.323 117.805 483.735 116.329 489.092 113.924C494.449 111.519 500.299 108.129 506.64 103.756C510.904 105.068 514.129 107.145 516.316 109.988C518.503 112.831 519.596 116.22 519.596 120.156C519.596 123.436 517.573 126.661 513.528 129.832C509.592 132.893 504.672 135.353 498.768 137.212C492.864 139.071 487.288 140 482.04 140ZM475.152 92.768C481.821 90.3627 487.397 87.3013 491.88 83.584C496.363 79.8667 498.604 76.696 498.604 74.072C498.604 71.0107 496.472 68.9333 492.208 67.84C488.053 70.9013 484.5 74.564 481.548 78.828C478.705 83.092 476.573 87.7387 475.152 92.768Z" fill="white"/>
<path d="M267.728 136.884L264.955 141.044L265.034 141.097L265.115 141.147L267.728 136.884ZM259.364 129.504L255.474 132.646L255.505 132.683L255.535 132.72L259.364 129.504ZM257.396 115.072L252.653 113.491L252.629 113.563L252.607 113.635L257.396 115.072ZM260.676 105.232L255.982 103.511L255.956 103.58L255.933 103.651L260.676 105.232ZM262.972 99L267.654 100.756L267.656 100.748L267.659 100.741L262.972 99ZM266.744 88.176L262.032 86.5039L262.008 86.5721L261.985 86.641L266.744 88.176ZM266.908 78.5L263.192 81.8448L263.368 82.0404L263.563 82.2165L266.908 78.5ZM262.316 74.564L259.259 78.5204L259.304 78.5554L259.35 78.5893L262.316 74.564ZM256.904 70.136L253.368 73.6715L253.453 73.7557L253.541 73.8357L256.904 70.136ZM258.38 58.656L254.311 55.7498L254.276 55.7987L254.243 55.8485L258.38 58.656ZM265.924 50.784L262.948 46.7662L262.911 46.7932L262.875 46.8209L265.924 50.784ZM281.34 50.62L278.463 54.709L278.497 54.7335L278.532 54.7574L281.34 50.62ZM289.212 57.836L285.308 60.9595L285.377 61.0456L285.449 61.1285L289.212 57.836ZM289.212 88.34L284.352 87.1668L284.352 87.1668L289.212 88.34ZM280.356 116.712L275.688 114.921L268.812 132.841L283.557 120.553L280.356 116.712ZM299.708 96.704L303.658 99.7696L303.658 99.7696L299.708 96.704ZM311.68 77.024L316.328 78.8658L316.651 78.0524L316.678 77.1778L311.68 77.024ZM314.14 59.148L309.375 57.632L309.36 57.6815L309.345 57.7313L314.14 59.148ZM328.736 55.048L326.123 59.311L326.203 59.36L326.285 59.4059L328.736 55.048ZM337.592 62.1L333.838 65.4031L333.872 65.4412L333.906 65.4786L337.592 62.1ZM341.2 68.332L346.194 68.5698L346.2 68.451V68.332H341.2ZM338.084 81.288L342.852 82.7937L342.856 82.7818L342.859 82.77L338.084 81.288ZM329.884 105.396L325.173 103.721L325.161 103.755L325.149 103.79L329.884 105.396ZM326.276 115.892L321.594 114.136L317.387 125.356L328.321 120.455L326.276 115.892ZM334.804 111.464L337.404 115.735L337.429 115.72L337.454 115.704L334.804 111.464ZM343.004 105.396L344.617 100.663L341.937 99.7495L339.774 101.579L343.004 105.396ZM353.664 112.284L349.717 115.354L349.781 115.435L349.847 115.514L353.664 112.284ZM351.696 130.324L354.658 134.352L354.696 134.324L354.733 134.296L351.696 130.324ZM338.412 137.212L340.113 141.914L340.113 141.914L338.412 137.212ZM317.092 137.212L314.455 141.46L314.509 141.494L314.563 141.525L317.092 137.212ZM308.564 130.652L304.951 134.108L305.028 134.188L305.108 134.265L308.564 130.652ZM306.104 120.648L301.632 118.412L301.575 118.527L301.523 118.644L306.104 120.648ZM308.892 115.072L304.467 112.743L304.443 112.789L304.42 112.836L308.892 115.072ZM311.352 110.644L315.592 113.294L318.373 108.845L313.795 106.281L311.352 110.644ZM307.252 108.348L309.695 103.985L305.281 101.513L302.861 105.957L307.252 108.348ZM291.672 132.456L287.899 129.175L287.878 129.199L287.858 129.223L291.672 132.456ZM277.076 135C275.453 135 273.243 134.4 270.341 132.621L265.115 141.147C268.991 143.523 273.014 145 277.076 145V135ZM270.502 132.724C267.575 130.773 265.153 128.623 263.193 126.288L255.535 132.72C258.167 135.852 261.321 138.622 264.955 141.044L270.502 132.724ZM263.254 126.362C262.245 125.114 261.614 124.136 261.253 123.414C260.876 122.661 260.92 122.437 260.92 122.616H250.92C250.92 126.229 253.106 129.713 255.474 132.646L263.254 126.362ZM260.92 122.616C260.92 121.621 261.234 119.679 262.185 116.509L252.607 113.635C251.59 117.025 250.92 120.112 250.92 122.616H260.92ZM262.139 116.653C262.277 116.239 262.206 116.452 262.344 116.038C262.482 115.624 262.411 115.837 262.549 115.423C262.687 115.009 262.616 115.222 262.754 114.808C262.892 114.394 262.821 114.607 262.959 114.193C263.097 113.779 263.026 113.992 263.164 113.578C263.302 113.164 263.231 113.377 263.369 112.963C263.507 112.549 263.436 112.762 263.574 112.348C263.712 111.934 263.641 112.147 263.779 111.733C263.848 111.528 263.813 111.631 263.882 111.426C263.95 111.22 263.916 111.324 263.984 111.118C264.053 110.913 264.018 111.016 264.087 110.811C264.155 110.605 264.121 110.709 264.189 110.503C264.258 110.298 264.223 110.401 264.292 110.196C264.36 109.99 264.326 110.094 264.394 109.888C264.463 109.683 264.531 109.479 264.599 109.273C264.668 109.068 264.736 108.864 264.804 108.658C264.873 108.453 264.941 108.249 265.009 108.043C265.078 107.838 265.146 107.634 265.214 107.428C265.283 107.223 265.351 107.019 265.419 106.813L255.933 103.651C255.91 103.72 255.546 104.812 255.523 104.881C255.5 104.95 255.136 106.042 255.113 106.111C255.078 106.214 254.942 106.623 254.908 106.726C254.885 106.795 254.726 107.272 254.703 107.341C254.68 107.41 254.521 107.887 254.498 107.956C254.463 108.059 254.429 108.161 254.395 108.263C254.361 108.366 254.327 108.468 254.293 108.571C254.224 108.778 254.157 108.979 254.088 109.186C254.019 109.393 253.952 109.594 253.883 109.801C253.814 110.008 253.747 110.209 253.678 110.416C253.609 110.623 253.542 110.824 253.473 111.031C253.404 111.238 253.337 111.439 253.268 111.646C253.199 111.853 253.132 112.054 253.063 112.261C252.994 112.468 252.927 112.669 252.858 112.876C252.789 113.083 252.722 113.284 252.653 113.491L262.139 116.653ZM265.37 106.953C266.575 103.668 267.333 101.609 267.654 100.756L258.29 97.2444C257.955 98.1399 257.182 100.236 255.982 103.511L265.37 106.953ZM267.659 100.741C269.102 96.8558 270.384 93.1786 271.503 89.711L261.985 86.641C260.917 89.9521 259.684 93.4909 258.285 97.2591L267.659 100.741ZM271.456 89.848C272.083 88.0804 272.584 86.514 272.934 85.1788C273.259 83.936 273.548 82.5537 273.548 81.288H263.548C263.548 81.225 263.536 81.592 263.26 82.6452C263.008 83.606 262.607 84.8823 262.032 86.5039L271.456 89.848ZM273.548 81.288C273.548 78.2789 271.712 76.0969 270.253 74.7835L263.563 82.2165C263.858 82.4819 263.889 82.5738 263.828 82.4701C263.754 82.3441 263.548 81.9279 263.548 81.288H273.548ZM270.624 75.1552C269.306 73.6904 267.461 72.1442 265.282 70.5387L259.35 78.5893C261.326 80.0451 262.542 81.123 263.192 81.8448L270.624 75.1552ZM265.373 70.6076C263 68.7734 261.321 67.3939 260.267 66.4363L253.541 73.8357C254.893 75.0648 256.822 76.6372 259.259 78.5204L265.373 70.6076ZM260.44 66.6005C260.212 66.3724 260.17 66.2675 260.188 66.3053C260.198 66.3262 260.219 66.3759 260.237 66.4512C260.254 66.5274 260.264 66.6101 260.264 66.692H250.264C250.264 69.5705 251.618 71.9208 253.368 73.6715L260.44 66.6005ZM260.264 66.692C260.264 65.839 260.688 64.1589 262.517 61.4635L254.243 55.8485C251.917 59.2758 250.264 62.953 250.264 66.692H260.264ZM262.449 61.5622C264.363 58.8818 266.539 56.6192 268.973 54.7471L262.875 46.8209C259.624 49.3221 256.77 52.3076 254.311 55.7498L262.449 61.5622ZM268.9 54.8018C271.577 52.819 273.014 52.504 273.468 52.504V42.504C269.767 42.504 266.175 44.3757 262.948 46.7662L268.9 54.8018ZM273.468 52.504C274.297 52.504 275.907 52.9104 278.463 54.709L284.217 46.531C280.869 44.1749 277.231 42.504 273.468 42.504V52.504ZM278.532 54.7574C281.203 56.5696 283.451 58.6388 285.308 60.9595L293.116 54.7125C290.6 51.5665 287.6 48.825 284.148 46.4826L278.532 54.7574ZM285.449 61.1285C286.473 62.2988 287.1 63.1781 287.447 63.789C287.836 64.4752 287.656 64.4441 287.656 63.904H297.656C297.656 61.9425 296.902 60.1894 296.143 58.853C295.342 57.4412 294.247 55.9972 292.975 54.5435L285.449 61.1285ZM287.656 63.904C287.656 70.1557 286.592 77.8853 284.352 87.1668L294.072 89.5132C296.424 79.7707 297.656 71.2097 297.656 63.904H287.656ZM284.352 87.1668C282.108 96.4628 279.221 105.714 275.688 114.921L285.024 118.503C288.707 108.905 291.724 99.2412 294.072 89.5132L284.352 87.1668ZM283.557 120.553C291.046 114.312 297.749 107.383 303.658 99.7696L295.758 93.6384C290.297 100.675 284.098 107.085 277.155 112.871L283.557 120.553ZM303.658 99.7696C309.506 92.2343 313.796 85.2568 316.328 78.8658L307.032 75.1822C304.972 80.3805 301.28 86.523 295.758 93.6384L303.658 99.7696ZM316.678 77.1778C316.888 70.3365 317.674 64.8337 318.935 60.5647L309.345 57.7313C307.764 63.0836 306.909 69.4981 306.682 76.8702L316.678 77.1778ZM318.905 60.664C319.604 58.4655 320.229 57.2475 320.644 56.6769C321.077 56.0807 320.697 56.932 319.388 56.932V46.932C316.111 46.932 313.872 48.986 312.556 50.7951C311.222 52.6298 310.207 55.0198 309.375 57.632L318.905 60.664ZM319.388 56.932C321.011 56.932 323.221 57.5321 326.123 59.311L331.349 50.785C327.473 48.4092 323.45 46.932 319.388 46.932V56.932ZM326.285 59.4059C329.343 61.1262 331.841 63.1332 333.838 65.4031L341.346 58.7969C338.532 55.6001 335.126 52.9058 331.187 50.6901L326.285 59.4059ZM333.906 65.4786C334.969 66.6385 335.615 67.5171 335.971 68.1312C336.359 68.802 336.2 68.8106 336.2 68.332H346.2C346.2 66.3227 345.439 64.5273 344.625 63.1208C343.778 61.6576 342.62 60.1854 341.278 58.7214L333.906 65.4786ZM336.206 68.0942C336.131 69.654 335.304 73.3761 333.309 79.806L342.859 82.77C344.8 76.5172 346.05 71.602 346.194 68.5698L336.206 68.0942ZM333.316 79.7823C331.373 85.9344 328.662 93.9083 325.173 103.721L334.595 107.071C338.103 97.2037 340.859 89.1056 342.852 82.7937L333.316 79.7823ZM325.149 103.79C323.054 109.965 321.886 113.357 321.594 114.136L330.958 117.648C331.322 116.677 332.559 113.072 334.619 107.002L325.149 103.79ZM328.321 120.455C331.65 118.962 334.682 117.392 337.404 115.735L332.204 107.193C329.897 108.598 327.244 109.979 324.231 111.329L328.321 120.455ZM337.454 115.704C340.317 113.915 343.244 111.743 346.234 109.213L339.774 101.579C337.079 103.86 334.539 105.733 332.154 107.224L337.454 115.704ZM341.391 110.129C345.6 111.564 348.2 113.403 349.717 115.354L357.611 109.214C354.536 105.261 350.029 102.508 344.617 100.663L341.391 110.129ZM349.847 115.514C351.49 117.455 352.272 119.592 352.272 122.124H362.272C362.272 117.222 360.649 112.798 357.481 109.054L349.847 115.514ZM352.272 122.124C352.272 122.31 352.067 123.746 348.659 126.352L354.733 134.296C358.76 131.217 362.272 127.186 362.272 122.124H352.272ZM348.734 126.296C345.466 128.699 341.48 130.785 336.711 132.51L340.113 141.914C345.621 139.921 350.491 137.416 354.658 134.352L348.734 126.296ZM336.711 132.51C331.866 134.263 328.102 135 325.292 135V145C329.698 145 334.68 143.879 340.113 141.914L336.711 132.51ZM325.292 135C324.267 135 322.44 134.552 319.621 132.899L314.563 141.525C318.085 143.59 321.725 145 325.292 145V135ZM319.729 132.964C316.831 131.165 314.267 129.188 312.02 127.039L305.108 134.265C307.89 136.927 311.011 139.323 314.455 141.46L319.729 132.964ZM312.177 127.196C311.084 126.053 310.418 125.215 310.056 124.656C309.879 124.382 309.83 124.259 309.835 124.273C309.84 124.285 309.868 124.357 309.896 124.483C309.923 124.61 309.956 124.812 309.956 125.076H299.956C299.956 127.157 300.913 128.933 301.66 130.088C302.501 131.387 303.639 132.736 304.951 134.108L312.177 127.196ZM309.956 125.076C309.956 124.85 310.052 124.099 310.685 122.652L301.523 118.644C300.626 120.696 299.956 122.897 299.956 125.076H309.956ZM310.576 122.884C311.451 121.135 312.38 119.276 313.364 117.308L304.42 112.836C303.436 114.804 302.507 116.663 301.632 118.412L310.576 122.884ZM313.317 117.401C314.406 115.331 315.152 113.998 315.592 113.294L307.112 107.994C306.459 109.039 305.565 110.658 304.467 112.743L313.317 117.401ZM313.795 106.281L309.695 103.985L304.809 112.711L308.909 115.007L313.795 106.281ZM302.861 105.957C296.897 116.909 291.91 124.562 287.899 129.175L295.445 135.737C300.181 130.291 305.58 121.873 311.643 110.739L302.861 105.957ZM287.858 129.223C284.329 133.385 280.771 135 277.076 135V145C284.315 145 290.487 141.586 295.486 135.689L287.858 129.223ZM413.965 67.02L418.785 65.6904L416.826 58.5912L410.951 63.0307L413.965 67.02ZM401.993 78.008L398.18 74.7731L398.151 74.8072L398.123 74.8418L401.993 78.008ZM400.681 90.964L398.011 95.1914L398.092 95.2429L398.176 95.2911L400.681 90.964ZM411.013 96.048L413.092 91.5006L413.082 91.4962L411.013 96.048ZM429.053 105.888L426.185 109.984L426.22 110.008L426.255 110.032L429.053 105.888ZM428.889 127.7L432.071 131.557L432.08 131.549L428.889 127.7ZM412.489 136.556L410.837 131.837L412.489 136.556ZM380.673 137.376L378.834 142.026L378.882 142.044L378.929 142.062L380.673 137.376ZM368.865 130.488L365.527 134.211L365.563 134.243L365.6 134.275L368.865 130.488ZM368.373 111.792L371.764 115.466L371.77 115.461L368.373 111.792ZM386.577 108.676L391.346 107.175L390.538 104.608L387.95 103.868L386.577 108.676ZM391.333 121.304L386.9 123.617L388.744 127.152L392.601 126.14L391.333 121.304ZM409.209 112.448L412.312 116.368L418.893 111.159L411.178 107.852L409.209 112.448ZM383.953 99.164L381.221 103.352L381.235 103.361L381.249 103.37L383.953 99.164ZM378.705 69.808L382.853 72.5989L382.865 72.5816L382.876 72.5643L378.705 69.808ZM394.121 54.064L396.993 58.1568L397 58.1518L397.007 58.1469L394.121 54.064ZM426.265 51.276L423.544 55.4708L423.569 55.4873L423.595 55.5034L426.265 51.276ZM436.269 61.116L440.482 58.424L440.482 58.424L436.269 61.116ZM435.777 81.452L438.9 85.3563L438.909 85.349L438.918 85.3417L435.777 81.452ZM416.917 83.092L411.923 83.3417L412.085 86.5909L415.122 87.7587L416.917 83.092ZM410.951 63.0307C405.821 66.9067 401.538 70.8156 398.18 74.7731L405.805 81.2429C408.57 77.9844 412.269 74.568 416.979 71.0093L410.951 63.0307ZM398.123 74.8418C394.987 78.6745 392.565 82.8835 392.565 87.192H402.565C402.565 86.4711 403.094 84.5575 405.863 81.1742L398.123 74.8418ZM392.565 87.192C392.565 89.3111 393.493 91.0154 394.489 92.2214C395.47 93.4094 396.727 94.3809 398.011 95.1914L403.351 86.7366C402.973 86.4978 402.695 86.2949 402.498 86.1325C402.299 85.9682 402.214 85.8718 402.199 85.8526C402.156 85.8012 402.565 86.2756 402.565 87.192H392.565ZM398.176 95.2911C400.481 96.6259 404.117 98.4059 408.944 100.6L413.082 91.4962C408.287 89.3168 405.035 87.7075 403.186 86.6369L398.176 95.2911ZM408.934 100.595C416.449 104.031 422.16 107.166 426.185 109.984L431.92 101.792C427.199 98.4869 420.883 95.0623 413.092 91.5006L408.934 100.595ZM426.255 110.032C429.769 112.404 430.613 114.485 430.613 116.22H440.613C440.613 110.083 437.083 105.276 431.85 101.744L426.255 110.032ZM430.613 116.22C430.613 118.066 429.597 120.617 425.697 123.851L432.08 131.549C437.146 127.348 440.613 122.246 440.613 116.22H430.613ZM425.707 123.843C421.878 127.002 416.962 129.693 410.837 131.837L414.141 141.275C421.136 138.827 427.152 135.614 432.071 131.557L425.707 123.843ZM410.837 131.837C404.694 133.987 399.134 135 394.121 135V145C400.478 145 407.164 143.717 414.141 141.275L410.837 131.837ZM394.121 135C390.547 135 386.656 134.267 382.416 132.69L378.929 142.062C384.092 143.983 389.167 145 394.121 145V135ZM382.511 132.726C378.225 131.032 374.799 129.002 372.129 126.701L365.6 134.275C369.272 137.441 373.717 140.003 378.834 142.026L382.511 132.726ZM372.202 126.765C369.389 124.243 369.109 122.819 369.109 122.452H359.109C359.109 127.114 361.999 131.048 365.527 134.211L372.202 126.765ZM369.109 122.452C369.109 119.122 370.113 116.99 371.764 115.466L364.981 108.118C360.948 111.842 359.109 116.817 359.109 122.452H369.109ZM371.77 115.461C373.644 113.726 376.185 112.692 379.853 112.692V102.692C374.118 102.692 369.006 104.392 364.976 108.123L371.77 115.461ZM379.853 112.692C381.534 112.692 383.313 112.944 385.203 113.484L387.95 103.868C385.248 103.096 382.545 102.692 379.853 102.692V112.692ZM381.808 110.177C383.676 116.113 385.37 120.684 386.9 123.617L395.766 118.991C394.672 116.895 393.195 113.047 391.346 107.175L381.808 110.177ZM392.601 126.14C399.918 124.221 406.506 120.965 412.312 116.368L406.105 108.528C401.415 112.24 396.086 114.888 390.064 116.468L392.601 126.14ZM411.178 107.852C402.225 104.015 394.055 99.7142 386.657 94.9581L381.249 103.37C389.157 108.454 397.825 113.009 407.239 117.044L411.178 107.852ZM386.684 94.9759C383.143 92.6664 380.771 90.611 379.329 88.8563C377.892 87.1067 377.637 85.9804 377.637 85.388H367.637C367.637 89.0596 369.267 92.3613 371.602 95.2037C373.933 98.041 377.219 100.742 381.221 103.352L386.684 94.9759ZM377.637 85.388C377.637 82.4685 379.034 78.2761 382.853 72.5989L374.556 67.0171C370.285 73.3666 367.637 79.5608 367.637 85.388H377.637ZM382.876 72.5643C386.563 66.9842 391.254 62.1837 396.993 58.1568L391.249 49.9712C384.523 54.6909 378.937 60.3864 374.533 67.0517L382.876 72.5643ZM397.007 58.1469C402.663 54.1484 408.126 52.34 413.473 52.34V42.34C405.7 42.34 398.261 45.0142 391.235 49.9811L397.007 58.1469ZM413.473 52.34C416.916 52.34 420.245 53.3308 423.544 55.4708L428.986 47.0812C424.194 43.9732 418.995 42.34 413.473 42.34V52.34ZM423.595 55.5034C427.162 57.7561 429.957 60.5231 432.055 63.8079L440.482 58.424C437.552 53.8369 433.677 50.0439 428.935 47.0486L423.595 55.5034ZM432.055 63.8079C434.187 67.1453 435.041 70.0501 435.041 72.596H445.041C445.041 67.7073 443.379 62.9587 440.482 58.424L432.055 63.8079ZM435.041 72.596C435.041 74.6709 434.32 76.2014 432.635 77.5623L438.918 85.3417C442.919 82.1106 445.041 77.7371 445.041 72.596H435.041ZM432.653 77.5477C430.987 78.8804 428.665 79.732 425.281 79.732V89.732C430.425 89.732 435.099 88.3969 438.9 85.3563L432.653 77.5477ZM425.281 79.732C423.227 79.732 421.047 79.3234 418.712 78.4253L415.122 87.7587C418.472 89.0473 421.868 89.732 425.281 89.732V79.732ZM421.911 82.8423C421.667 77.9706 420.588 72.2271 418.785 65.6904L409.145 68.3496C410.84 74.4955 411.729 79.4667 411.923 83.3417L421.911 82.8423ZM465.64 134.916L463.02 139.174L463.05 139.193L463.08 139.211L465.64 134.916ZM451.536 122.124L455.557 119.152L455.557 119.152L451.536 122.124ZM451.536 81.616L446.897 79.7499L446.888 79.7729L446.879 79.796L451.536 81.616ZM467.28 57.508L470.786 61.0726L470.801 61.0581L470.816 61.0435L467.28 57.508ZM506.148 51.44L503.754 55.8295L503.774 55.8407L503.795 55.8518L506.148 51.44ZM517.628 61.28L513.521 64.132L513.521 64.132L517.628 61.28ZM515.496 86.372L519.121 89.8157L519.142 89.7934L519.163 89.7708L515.496 86.372ZM498.112 98.016L500.13 102.591L500.158 102.578L500.186 102.566L498.112 98.016ZM472.692 105.068L471.953 100.123L468.038 100.708L467.709 104.653L472.692 105.068ZM472.856 118.352L467.9 119.013L468.539 123.809L473.354 123.327L472.856 118.352ZM489.092 113.924L491.14 118.485L491.14 118.485L489.092 113.924ZM506.64 103.756L508.111 98.9771L505.795 98.2648L503.801 99.6399L506.64 103.756ZM516.316 109.988L520.279 106.939L520.279 106.939L516.316 109.988ZM513.528 129.832L516.598 133.779L516.605 133.773L516.613 133.767L513.528 129.832ZM498.768 137.212L497.267 132.443L497.267 132.443L498.768 137.212ZM475.152 92.768L470.341 91.4082L467.694 100.773L476.848 97.4715L475.152 92.768ZM492.208 67.84L493.45 62.9967L491.152 62.4074L489.242 63.8147L492.208 67.84ZM481.548 78.828L477.437 75.9819L477.412 76.018L477.388 76.0545L481.548 78.828ZM482.04 135C477.901 135 473.311 133.668 468.2 130.621L463.08 139.211C469.34 142.943 475.683 145 482.04 145V135ZM468.261 130.658C463.083 127.471 458.869 123.633 455.557 119.152L447.515 125.096C451.638 130.674 456.827 135.363 463.02 139.174L468.261 130.658ZM455.557 119.152C452.231 114.651 450.96 110.919 450.96 107.856H440.96C440.96 113.758 443.407 119.538 447.515 125.096L455.557 119.152ZM450.96 107.856C450.96 100.645 452.642 92.5229 456.193 83.436L446.879 79.796C442.996 89.7331 440.96 99.1048 440.96 107.856H450.96ZM456.175 83.4821C459.77 74.5464 464.653 67.1058 470.786 61.0726L463.774 53.9434C456.569 61.0302 450.956 69.6616 446.897 79.7499L456.175 83.4821ZM470.816 61.0435C476.671 55.1885 482.984 52.504 489.912 52.504V42.504C480.003 42.504 471.228 46.4888 463.745 53.9725L470.816 61.0435ZM489.912 52.504C495.172 52.504 499.747 53.6442 503.754 55.8295L508.542 47.0505C502.927 43.9878 496.679 42.504 489.912 42.504V52.504ZM503.795 55.8518C508.13 58.1635 511.309 60.9467 513.521 64.132L521.735 58.428C518.48 53.7413 514.007 49.9645 508.501 47.0282L503.795 55.8518ZM513.521 64.132C515.841 67.4717 516.728 70.3208 516.728 72.76H526.728C526.728 67.7645 524.882 62.9603 521.735 58.428L513.521 64.132ZM516.728 72.76C516.728 75.7217 515.417 79.1022 511.829 82.9732L519.163 89.7708C523.885 84.6764 526.728 78.9823 526.728 72.76H516.728ZM511.871 82.9283C508.284 86.7041 503.084 90.2545 496.038 93.4665L500.186 102.566C508.01 98.9989 514.399 94.7866 519.121 89.8157L511.871 82.9283ZM496.094 93.4414C489.134 96.512 481.102 98.7558 471.953 100.123L473.431 110.013C483.306 108.538 492.221 106.08 500.13 102.591L496.094 93.4414ZM467.709 104.653C467.582 106.179 467.528 108.317 467.528 110.972H477.528C477.528 108.379 477.583 106.581 477.675 105.483L467.709 104.653ZM467.528 110.972C467.528 114.303 467.636 117.033 467.9 119.013L477.812 117.691C477.639 116.391 477.528 114.201 477.528 110.972H467.528ZM473.354 123.327C479.392 122.723 485.326 121.096 491.14 118.485L487.044 109.363C482.144 111.563 477.254 112.887 472.359 113.377L473.354 123.327ZM491.14 118.485C496.844 115.924 502.96 112.368 509.479 107.872L503.801 99.6399C497.637 103.891 492.055 107.113 487.044 109.363L491.14 118.485ZM505.17 108.535C508.688 109.617 510.938 111.196 512.353 113.037L520.279 106.939C517.321 103.094 513.121 100.519 508.111 98.9771L505.17 108.535ZM512.353 113.037C513.801 114.919 514.596 117.209 514.596 120.156H524.596C524.596 115.231 523.205 110.742 520.279 106.939L512.353 113.037ZM514.596 120.156C514.596 121.194 513.972 123.131 510.444 125.897L516.613 133.767C521.175 130.192 524.596 125.678 524.596 120.156H514.596ZM510.458 125.885C507.09 128.505 502.735 130.721 497.267 132.443L500.27 141.981C506.609 139.985 512.094 137.282 516.598 133.779L510.458 125.885ZM497.267 132.443C491.764 134.175 486.697 135 482.04 135V145C487.879 145 493.965 143.966 500.27 141.981L497.267 132.443ZM476.848 97.4715C483.947 94.9112 490.059 91.5898 495.072 87.4328L488.688 79.7352C484.736 83.0129 479.695 85.8142 473.456 88.0645L476.848 97.4715ZM495.072 87.4328C497.501 85.4187 499.539 83.3788 501.006 81.3042C502.452 79.2591 503.604 76.8055 503.604 74.072H493.604C493.604 73.9625 493.636 74.4062 492.84 75.5318C492.065 76.6278 490.742 78.032 488.688 79.7352L495.072 87.4328ZM503.604 74.072C503.604 71.2358 502.557 68.6463 500.494 66.6369C498.573 64.7644 496.051 63.6637 493.45 62.9967L490.966 72.6833C492.629 73.1096 493.306 73.5943 493.516 73.7991C493.598 73.8793 493.597 73.903 493.586 73.8766C493.576 73.8531 493.604 73.8979 493.604 74.072H503.604ZM489.242 63.8147C484.641 67.2049 480.702 71.2667 477.437 75.9819L485.659 81.674C488.299 77.8613 491.466 74.5977 495.174 71.8653L489.242 63.8147ZM477.388 76.0545C474.25 80.7615 471.901 85.8866 470.341 91.4082L479.964 94.1278C481.246 89.5907 483.161 85.4225 485.708 81.6015L477.388 76.0545Z" fill="#8800FF" fill-opacity="0.06" mask="url(#path-1-inside-1_102_112)"/>
<path d="M59.6319 0C55.2136 0 51.6319 3.58172 51.6319 8V79.8999C51.6319 85.4995 45.8847 89.4662 40.2853 89.4275C40.2041 89.427 40.1229 89.4267 40.0416 89.4267C30.0763 89.4267 19.9113 93.5378 12.1534 100.705C-2.31329 114.069 -4.12391 134.142 8.11659 145.451C13.3863 150.319 20.6836 153 28.663 153C38.6282 153 48.7933 148.889 56.5512 141.721C63.3113 135.476 67.5724 127.567 68.5485 119.45C68.6877 118.292 68.7505 117.143 68.7506 116.006C68.7506 116.004 68.7519 116.003 68.7534 116.003V116.003C68.755 116.003 68.7563 116.002 68.7563 116V39.6398C68.7563 35.2215 72.338 31.6398 76.7563 31.6398H129.254C133.672 31.6398 137.254 35.2215 137.254 39.6398V79.9C137.254 85.4995 131.507 89.4662 125.907 89.4275C125.826 89.427 125.745 89.4267 125.663 89.4267C115.698 89.4267 105.533 93.5378 97.7752 100.705C83.3086 114.069 81.4979 134.142 93.7384 145.451C99.0082 150.319 106.305 153 114.285 153C124.25 153 134.415 148.889 142.173 141.721C148.933 135.476 153.194 127.567 154.17 119.45C154.31 118.292 154.372 117.143 154.372 116.006C154.372 116.004 154.374 116.003 154.375 116.003V116.003C154.377 116.003 154.378 116.002 154.378 116V39.6398C154.378 35.2215 157.96 31.6398 162.378 31.6398H214.876C219.294 31.6398 222.876 35.2215 222.876 39.6398V79.9C222.876 85.4995 217.128 89.4662 211.529 89.4275C211.448 89.427 211.367 89.4267 211.285 89.4267C201.32 89.4267 191.155 93.5378 183.397 100.705C168.93 114.069 167.12 134.142 179.36 145.451C184.63 150.319 191.927 153 199.907 153C209.872 153 220.037 148.889 227.795 141.721C234.556 135.476 238.817 127.567 239.792 119.45C239.931 118.292 239.994 117.143 239.994 116.006C239.994 116.004 239.996 116.003 239.997 116.003V116.003C239.999 116.003 240 116.002 240 116V7.99999C240 3.58172 236.418 0 232 0H59.6319Z" fill="white"/>
<path d="M13.8498 102.542L13.8499 102.541C21.1763 95.7727 30.7453 91.9267 40.0416 91.9267C40.1171 91.9267 40.1926 91.927 40.268 91.9275C43.6326 91.9507 47.0224 90.781 49.6074 88.7403C52.2102 86.6856 54.1319 83.6212 54.1319 79.8999V8C54.1319 4.96243 56.5943 2.5 59.6319 2.5H232C235.038 2.5 237.5 4.96243 237.5 7.99999V115.835C237.496 115.892 237.494 115.948 237.494 116.006C237.494 117.051 237.436 118.1 237.31 119.152C236.414 126.604 232.481 133.989 226.099 139.885C218.772 146.654 209.203 150.5 199.907 150.5C192.48 150.5 185.811 148.007 181.057 143.614C170.198 133.582 171.361 115.228 185.093 102.542L185.094 102.541C192.42 95.7727 201.989 91.9267 211.285 91.9267C211.361 91.9267 211.436 91.927 211.512 91.9275C214.876 91.9507 218.266 90.781 220.851 88.7403C223.454 86.6856 225.376 83.6213 225.376 79.8999V39.6398C225.376 33.8408 220.675 29.1398 214.876 29.1398H162.378C156.579 29.1398 151.878 33.8408 151.878 39.6398V115.835C151.874 115.892 151.872 115.948 151.872 116.006C151.872 117.051 151.815 118.1 151.688 119.152C150.792 126.604 146.859 133.989 140.477 139.885L141.985 141.517L140.477 139.885C133.15 146.654 123.581 150.5 114.285 150.5C106.858 150.5 100.189 148.007 95.435 143.614C84.5764 133.582 85.7388 115.228 99.4716 102.542L99.4717 102.541C106.798 95.7727 116.367 91.9267 125.663 91.9267C125.739 91.9267 125.814 91.927 125.89 91.9275C129.254 91.9507 132.644 90.781 135.229 88.7403C137.832 86.6856 139.754 83.6213 139.754 79.8999V39.6398C139.754 33.8408 135.053 29.1398 129.254 29.1398H76.7563C70.9573 29.1398 66.2563 33.8408 66.2563 39.6398V115.836C66.2525 115.892 66.2506 115.948 66.2506 116.006C66.2505 117.051 66.1928 118.1 66.0664 119.152C65.1702 126.604 61.2372 133.989 54.8547 139.885L56.4842 141.649L54.8547 139.885C47.5283 146.654 37.9592 150.5 28.663 150.5C21.236 150.5 14.5676 148.007 9.81312 143.614C-1.04546 133.582 0.116982 115.228 13.8498 102.542Z" stroke="#8800FF" stroke-opacity="0.06" stroke-width="5"/>
</svg>
