<svg width="549" height="195" viewBox="0 0 549 195" fill="none" xmlns="http://www.w3.org/2000/svg">
<path d="M366.42 119.196C366.42 115.151 366.311 111.816 366.092 109.192C365.983 106.459 365.545 104.381 364.78 102.96C364.015 101.429 362.921 100.391 361.5 99.844C360.079 99.188 358.111 98.86 355.596 98.86V93.94C358.329 93.94 360.625 93.776 362.484 93.448C364.452 93.12 366.201 92.628 367.732 91.972C369.263 91.316 370.684 90.5507 371.996 89.676C373.308 88.8013 374.729 87.872 376.26 86.888H381.18V145.108C381.18 147.295 381.508 149.099 382.164 150.52C382.929 151.941 383.804 153.089 384.788 153.964C385.881 154.839 387.084 155.495 388.396 155.932C389.817 156.26 391.184 156.424 392.496 156.424V162.164C389.981 161.836 387.795 161.563 385.936 161.344C384.187 161.016 381.945 160.852 379.212 160.852C375.495 160.852 371.777 161.235 368.06 162L366.42 160.36V151.176C365.217 153.035 363.96 154.784 362.648 156.424C361.445 157.955 359.969 159.321 358.22 160.524C356.471 161.617 354.448 162.492 352.152 163.148C349.856 163.913 347.123 164.296 343.952 164.296C333.019 164.296 325.201 160.961 320.5 154.292C315.799 147.513 313.339 137.728 313.12 124.936C313.011 119.032 312.847 114.385 312.628 110.996C312.519 107.497 312.136 104.873 311.48 103.124C310.824 101.265 309.785 100.117 308.364 99.68C306.943 99.1333 304.92 98.86 302.296 98.86V93.94C305.029 93.94 307.325 93.776 309.184 93.448C311.152 93.12 312.901 92.628 314.432 91.972C315.963 91.316 317.384 90.5507 318.696 89.676C320.008 88.8013 321.429 87.872 322.96 86.888H327.88V121.492C327.88 128.161 328.317 133.737 329.192 138.22C330.067 142.703 331.269 146.311 332.8 149.044C334.44 151.777 336.353 153.745 338.54 154.948C340.727 156.041 343.132 156.588 345.756 156.588C348.817 156.588 351.605 155.823 354.12 154.292C356.744 152.652 358.931 150.411 360.68 147.568C362.539 144.725 363.96 141.391 364.944 137.564C365.928 133.628 366.42 129.419 366.42 124.936V119.196ZM458.406 100.5C458.406 104.655 456.985 107.716 454.142 109.684C451.409 111.543 448.293 112.472 444.794 112.472L444.302 111.652C445.067 111.324 445.887 110.504 446.762 109.192C447.637 107.88 448.074 106.131 448.074 103.944C448.074 100.227 446.707 97.4933 443.974 95.744C441.241 93.8853 437.633 92.956 433.15 92.956C432.057 92.956 430.745 93.0653 429.214 93.284C427.683 93.5027 426.207 93.9947 424.786 94.76C423.365 95.5253 422.107 96.6187 421.014 98.04C420.03 99.4613 419.538 101.32 419.538 103.616C419.538 106.677 420.577 109.083 422.654 110.832C424.731 112.581 427.301 114.057 430.362 115.26C433.533 116.463 436.922 117.611 440.53 118.704C444.138 119.797 447.473 121.219 450.534 122.968C453.705 124.717 456.329 127.013 458.406 129.856C460.483 132.699 461.522 136.471 461.522 141.172C461.522 148.825 458.625 154.62 452.83 158.556C447.145 162.383 439.601 164.296 430.198 164.296C429.542 164.296 428.503 164.241 427.082 164.132C425.661 164.132 424.239 164.023 422.818 163.804C421.506 163.585 420.303 163.257 419.21 162.82C418.117 162.383 417.57 161.727 417.57 160.852C412.978 160.852 409.534 159.649 407.238 157.244C404.942 154.839 403.794 151.777 403.794 148.06C403.794 144.015 404.942 141.117 407.238 139.368C409.643 137.619 412.377 136.635 415.438 136.416L415.766 136.908C414.891 137.892 414.345 139.204 414.126 140.844C413.907 142.375 413.798 143.577 413.798 144.452C413.798 146.857 414.345 148.88 415.438 150.52C416.531 152.051 417.898 153.308 419.538 154.292C421.178 155.167 422.982 155.823 424.95 156.26C427.027 156.588 429.05 156.752 431.018 156.752C431.455 156.752 432.439 156.697 433.97 156.588C435.61 156.479 437.25 156.096 438.89 155.44C440.53 154.675 442.006 153.527 443.318 151.996C444.63 150.356 445.286 148.115 445.286 145.272C445.286 141.883 444.302 139.204 442.334 137.236C440.366 135.268 437.851 133.628 434.79 132.316C431.838 131.004 428.613 129.801 425.114 128.708C421.615 127.505 418.335 126.084 415.274 124.444C412.322 122.804 409.862 120.672 407.894 118.048C405.926 115.315 404.942 111.707 404.942 107.224C404.942 102.741 405.926 99.0787 407.894 96.236C409.862 93.3933 412.322 91.152 415.274 89.512C418.226 87.872 421.342 86.7787 424.622 86.232C428.011 85.576 431.073 85.248 433.806 85.248C437.305 85.248 439.983 85.576 441.842 86.232C443.701 86.888 444.63 87.8173 444.63 89.02C446.27 89.02 447.91 89.2387 449.55 89.676C451.19 90.004 452.666 90.6053 453.978 91.48C455.29 92.3547 456.329 93.5573 457.094 95.088C457.969 96.5093 458.406 98.3133 458.406 100.5ZM513.092 156.916C514.732 156.916 516.372 156.752 518.012 156.424C519.652 155.987 521.183 155.276 522.604 154.292C524.135 153.199 525.502 151.723 526.704 149.864C528.016 147.896 529.164 145.327 530.148 142.156C532.663 142.156 534.74 142.757 536.38 143.96C538.02 145.163 538.84 147.021 538.84 149.536C538.84 151.832 538.075 153.909 536.544 155.768C535.123 157.627 533.155 159.212 530.64 160.524C528.235 161.727 525.392 162.656 522.112 163.312C518.942 163.968 515.607 164.296 512.108 164.296C506.095 164.296 500.792 163.367 496.2 161.508C491.608 159.54 487.782 156.861 484.72 153.472C481.659 149.973 479.308 145.764 477.668 140.844C476.138 135.924 475.372 130.512 475.372 124.608C475.372 112.363 478.598 102.741 485.048 95.744C491.499 88.7467 500.683 85.248 512.6 85.248C514.022 85.248 515.443 85.3027 516.864 85.412C518.286 85.5213 519.598 85.7947 520.8 86.232C522.003 86.56 522.987 87.1067 523.752 87.872C524.518 88.528 524.9 89.4027 524.9 90.496C526.54 90.496 528.18 90.824 529.82 91.48C531.57 92.136 533.155 93.12 534.576 94.432C536.107 95.744 537.31 97.4387 538.184 99.516C539.168 101.484 539.66 103.889 539.66 106.732C539.66 110.777 538.676 114.112 536.708 116.736C534.74 119.36 532.226 121.492 529.164 123.132C526.212 124.663 522.932 125.756 519.324 126.412C515.826 126.959 512.491 127.232 509.32 127.232C505.712 127.232 502.323 126.959 499.152 126.412C496.091 125.865 493.467 125.209 491.28 124.444V125.1C491.28 129.692 491.663 133.956 492.428 137.892C493.194 141.828 494.396 145.217 496.036 148.06C497.786 150.793 500.027 152.98 502.76 154.62C505.603 156.151 509.047 156.916 513.092 156.916ZM511.288 92.956C505.384 92.956 500.847 95.088 497.676 99.352C494.506 103.616 492.483 109.52 491.608 117.064C493.467 118.267 495.982 119.087 499.152 119.524C502.432 119.852 505.548 120.016 508.5 120.016C514.404 120.016 518.504 119.087 520.8 117.228C523.206 115.369 524.408 112.144 524.408 107.552C524.408 102.085 523.151 98.3133 520.636 96.236C518.122 94.0493 515.006 92.956 511.288 92.956Z" fill="white"/>
<path d="M69.0978 21C64.6795 21 61.0978 24.5817 61.0978 29V113.618C61.0978 119.173 55.4782 123.107 49.9326 122.776C49.0901 122.726 48.2397 122.701 47.3825 122.701C35.5903 122.701 23.5617 127.376 14.3815 135.528C-2.73739 150.726 -4.87996 173.553 9.60463 186.415C15.8405 191.951 24.4756 195 33.9179 195C45.7101 195 57.7387 190.325 66.9189 182.173C74.9184 175.071 79.9607 166.076 81.1157 156.845C81.2804 155.528 81.3547 154.222 81.3548 152.928C81.3548 152.927 81.3564 152.925 81.3582 152.925V152.925C81.3601 152.925 81.3616 152.924 81.3616 152.922V64.9825C81.3616 60.5642 84.9433 56.9825 89.3616 56.9825H154.417C158.835 56.9825 162.417 60.5642 162.417 64.9825V113.618C162.417 119.173 156.797 123.107 151.252 122.776C150.409 122.726 149.559 122.701 148.702 122.701C136.91 122.701 124.881 127.376 115.701 135.528C98.5818 150.726 96.4392 173.553 110.924 186.415C117.16 191.951 125.795 195 135.237 195C147.029 195 159.058 190.325 168.238 182.173C176.238 175.071 181.28 166.076 182.435 156.845C182.6 155.528 182.674 154.222 182.674 152.928C182.674 152.927 182.676 152.925 182.677 152.925V152.925C182.679 152.925 182.681 152.924 182.681 152.922V64.9825C182.681 60.5642 186.263 56.9825 190.681 56.9825H255.736C260.154 56.9825 263.736 60.5642 263.736 64.9825V113.618C263.736 119.173 258.117 123.107 252.571 122.776C251.729 122.726 250.878 122.701 250.021 122.701C238.229 122.701 226.2 127.376 217.02 135.528C199.901 150.726 197.758 173.553 212.243 186.415C218.479 191.951 227.114 195 236.556 195C248.348 195 260.377 190.325 269.558 182.173C277.557 175.071 282.6 166.076 283.754 156.845C283.919 155.528 283.993 154.222 283.993 152.928C283.993 152.927 283.995 152.925 283.997 152.925V152.925C283.998 152.925 284 152.924 284 152.922V29C284 24.5817 280.418 21 276 21H69.0978Z" fill="white"/>
</svg>
