<svg width="508" height="186" viewBox="0 0 508 186" fill="none" xmlns="http://www.w3.org/2000/svg">
<path d="M326.266 93.9727C324.237 95.4674 323.009 97.1224 322.582 98.9375C322.262 100.753 321.728 102.835 320.98 105.184C321.835 104.009 322.849 102.461 324.023 100.539C325.305 98.6172 326.052 96.4284 326.266 93.9727ZM350.77 146.984C341.694 156.38 333.099 162.092 324.984 164.121C322.102 164.868 319.432 165.242 316.977 165.242C312.706 165.242 309.716 164.174 308.008 162.039C306.299 159.797 305.392 157.128 305.285 154.031V152.109C305.285 150.935 305.285 149.547 305.285 147.945C305.285 146.237 305.339 144.315 305.445 142.18C300.854 147.945 296.477 152.857 292.312 156.914C288.148 160.865 284.839 163.107 282.383 163.641C280.888 163.854 279.447 164.014 278.059 164.121C276.671 164.335 275.229 164.441 273.734 164.441C271.492 164.441 269.357 164.228 267.328 163.801C265.406 163.48 263.698 162.893 262.203 162.039C260.708 161.078 259.534 159.904 258.68 158.516C257.826 157.128 257.398 155.366 257.398 153.23V152.59C257.398 152.056 257.559 150.668 257.879 148.426C258.092 146.077 258.733 142.447 259.801 137.535C260.975 132.624 262.737 126.111 265.086 117.996C267.435 109.882 270.691 99.6849 274.855 87.4062L289.91 88.207C286.173 96.7487 283.13 104.383 280.781 111.109C278.539 117.729 276.777 123.548 275.496 128.566C274.322 133.478 273.521 137.642 273.094 141.059C272.667 144.475 272.453 147.251 272.453 149.387C272.453 150.561 272.453 151.522 272.453 152.27C272.56 152.91 272.667 153.497 272.773 154.031C272.88 154.565 272.987 154.992 273.094 155.312C275.549 154.031 278.272 152.27 281.262 150.027C284.251 147.678 287.241 145.062 290.23 142.18C293.22 139.297 296.156 136.254 299.039 133.051C301.922 129.741 304.538 126.484 306.887 123.281C307.207 119.651 307.634 116.074 308.168 112.551C308.702 109.027 309.342 105.771 310.09 102.781C310.837 99.7917 311.638 97.1224 312.492 94.7734C313.346 92.4245 314.361 90.6628 315.535 89.4883C317.457 87.6732 319.753 86.7656 322.422 86.7656C324.023 86.7656 325.572 87.0859 327.066 87.7266C328.561 88.2604 329.896 89.0078 331.07 89.9688C332.245 90.8229 333.206 91.8372 333.953 93.0117C334.701 94.1862 335.074 95.3607 335.074 96.5352V97.0156C334.967 97.763 334.487 99.0443 333.633 100.859C332.779 102.568 331.551 104.703 329.949 107.266C328.454 109.828 326.693 112.658 324.664 115.754C322.742 118.743 320.607 121.893 318.258 125.203C317.724 127.979 317.297 130.809 316.977 133.691C316.656 136.467 316.496 139.243 316.496 142.02C316.496 145.116 316.763 147.999 317.297 150.668C317.831 153.23 318.685 155.419 319.859 157.234C322.529 156.06 325.465 154.298 328.668 151.949C331.871 149.493 334.914 147.038 337.797 144.582C340.786 142.02 343.402 139.724 345.645 137.695C347.887 135.56 349.328 134.225 349.969 133.691L350.77 146.984ZM372.871 155.312C374.046 155.312 375.273 155.152 376.555 154.832C376.768 154.725 376.982 154.618 377.195 154.512C377.516 154.405 377.836 154.298 378.156 154.191C379.331 153.658 380.345 152.697 381.199 151.309C382.16 149.814 382.908 148.159 383.441 146.344C384.082 144.529 384.509 142.607 384.723 140.578C385.043 138.549 385.203 136.628 385.203 134.812C385.203 132.784 384.99 130.969 384.562 129.367C384.242 127.659 383.708 126.111 382.961 124.723C382.32 123.228 381.573 121.84 380.719 120.559C379.971 119.171 379.224 117.783 378.477 116.395C377.516 114.686 376.822 112.924 376.395 111.109C375.967 109.294 375.647 107.479 375.434 105.664L351.57 139.777C353.279 140.525 354.88 141.699 356.375 143.301C357.87 144.796 359.365 146.397 360.859 148.105C362.461 149.707 364.116 151.202 365.824 152.59C367.533 153.978 369.454 154.885 371.59 155.312H372.871ZM424.121 146.664C423.48 146.984 421.879 147.839 419.316 149.227C416.754 150.508 413.658 152.056 410.027 153.871C406.504 155.579 402.66 157.448 398.496 159.477C394.332 161.398 390.328 163.16 386.484 164.762C382.641 166.47 379.171 167.858 376.074 168.926C372.978 169.993 370.736 170.527 369.348 170.527H368.867C366.945 170.314 364.81 169.513 362.461 168.125C360.219 166.844 357.977 165.189 355.734 163.16C353.599 161.238 351.517 159.103 349.488 156.754C347.566 154.298 345.965 151.949 344.684 149.707L334.113 167.324L326.105 159.957C327.387 158.462 329.255 156.007 331.711 152.59C334.06 149.173 336.729 145.276 339.719 140.898C342.602 136.414 345.645 131.716 348.848 126.805C352.051 121.786 355.147 116.928 358.137 112.23C361.233 107.533 364.009 103.208 366.465 99.2578C369.027 95.3073 371.056 92.1576 372.551 89.8086C373.191 85.9648 374.206 82.4414 375.594 79.2383C377.089 75.9284 378.85 73.9531 380.879 73.3125H381.68C382.32 73.3125 383.014 73.6328 383.762 74.2734C384.616 74.9141 385.363 75.7682 386.004 76.8359C386.751 77.7969 387.339 78.8646 387.766 80.0391C388.299 81.1068 388.566 82.1211 388.566 83.082C388.566 83.6159 388.513 84.0964 388.406 84.5234C387.766 86.125 387.018 88.1003 386.164 90.4492C385.31 92.6914 384.616 94.9336 384.082 97.1758C383.868 97.8164 383.762 98.4036 383.762 98.9375C383.762 100.539 384.189 102.194 385.043 103.902C385.897 105.504 386.858 107.105 387.926 108.707C389.1 110.202 390.221 111.643 391.289 113.031C392.464 114.312 393.318 115.434 393.852 116.395C395.56 119.277 396.788 122.32 397.535 125.523C398.283 128.62 398.656 131.609 398.656 134.492C398.656 136.307 398.496 138.016 398.176 139.617C397.962 141.219 397.589 142.66 397.055 143.941C397.055 144.048 396.841 144.475 396.414 145.223C396.094 145.97 395.72 146.824 395.293 147.785C394.866 148.639 394.439 149.44 394.012 150.188C393.691 150.935 393.531 151.362 393.531 151.469C397.161 149.547 400.632 147.732 403.941 146.023C406.717 144.529 409.44 143.034 412.109 141.539C414.885 140.044 416.914 138.87 418.195 138.016L424.121 146.664ZM452.469 96.8555C451.615 96.8555 450.44 97.4961 448.945 98.7773C447.557 100.059 446.009 101.767 444.301 103.902C442.699 105.931 440.991 108.333 439.176 111.109C437.361 113.885 435.759 116.768 434.371 119.758C433.837 120.826 433.357 121.893 432.93 122.961C432.503 124.029 432.076 125.15 431.648 126.324C434.424 125.79 437.307 125.15 440.297 124.402C443.393 123.548 445.689 122.641 447.184 121.68C447.931 121.146 448.732 120.078 449.586 118.477C450.547 116.875 451.401 115.113 452.148 113.191C453.003 111.163 453.697 109.081 454.23 106.945C454.764 104.703 455.031 102.781 455.031 101.18C455.031 100.005 454.818 98.9909 454.391 98.1367C453.964 97.2826 453.323 96.8555 452.469 96.8555ZM488.023 142.5C486.102 143.888 483.859 145.49 481.297 147.305C478.734 149.013 476.012 150.828 473.129 152.75C470.353 154.565 467.523 156.38 464.641 158.195C461.865 160.01 459.249 161.612 456.793 163C454.444 164.495 452.415 165.669 450.707 166.523C448.999 167.484 447.878 168.018 447.344 168.125C447.023 168.232 446.596 168.285 446.062 168.285C444.247 168.285 441.845 167.805 438.855 166.844C435.973 165.99 433.036 164.868 430.047 163.48C427.057 162.199 424.281 160.811 421.719 159.316C419.263 157.715 417.608 156.22 416.754 154.832C416.113 153.658 415.633 152.163 415.312 150.348C415.099 148.426 414.992 146.237 414.992 143.781C414.992 141.646 415.099 139.404 415.312 137.055C415.526 134.599 415.793 132.303 416.113 130.168C416.54 127.926 416.967 125.897 417.395 124.082C417.928 122.267 418.516 120.826 419.156 119.758C419.904 118.263 421.078 116.395 422.68 114.152C424.281 111.803 426.096 109.401 428.125 106.945C430.26 104.383 432.503 101.82 434.852 99.2578C437.201 96.6953 439.549 94.3997 441.898 92.3711C444.247 90.2357 446.49 88.5273 448.625 87.2461C450.867 85.8581 452.842 85.1107 454.551 85.0039C454.658 85.0039 454.711 85.0039 454.711 85.0039C454.818 84.8971 454.978 84.8438 455.191 84.8438C456.9 84.8438 458.608 85.5911 460.316 87.0859C462.025 88.5807 463.52 90.3958 464.801 92.5312C466.082 94.6667 467.096 96.9622 467.844 99.418C468.698 101.767 469.125 103.902 469.125 105.824C469.125 106.785 469.072 107.479 468.965 107.906C468.538 109.615 467.577 111.75 466.082 114.312C464.587 116.768 462.932 119.224 461.117 121.68C459.302 124.029 457.54 126.164 455.832 128.086C454.124 129.901 452.842 131.129 451.988 131.77C451.348 132.303 450.173 132.837 448.465 133.371C446.863 133.798 444.941 134.279 442.699 134.812C440.564 135.24 438.268 135.667 435.812 136.094C433.357 136.521 430.954 136.895 428.605 137.215C428.178 139.35 427.858 141.219 427.645 142.82C427.431 144.315 427.271 145.383 427.164 146.023C427.378 147.198 428.018 148.372 429.086 149.547C430.154 150.721 431.488 151.789 433.09 152.75C434.691 153.711 436.453 154.512 438.375 155.152C440.404 155.686 442.432 155.953 444.461 155.953C444.888 155.953 445.315 155.953 445.742 155.953C446.276 155.953 446.757 155.9 447.184 155.793C449.105 155.259 451.668 154.031 454.871 152.109C458.074 150.188 461.384 147.999 464.801 145.543C468.324 143.087 471.634 140.578 474.73 138.016C477.934 135.346 480.389 132.997 482.098 130.969L488.023 142.5Z" fill="white"/>
<path d="M60.2773 40C55.859 40 52.2773 43.5817 52.2773 48V115.949C52.2773 121.483 46.675 125.428 41.1414 125.34C40.9421 125.337 40.7423 125.335 40.5421 125.335C30.4523 125.335 20.1602 129.258 12.3053 136.098C-2.34221 148.85 -4.17546 168.004 8.21805 178.796C13.5537 183.442 20.9421 186 29.0213 186C39.1111 186 49.4032 182.077 57.2581 175.237C64.1027 169.278 68.4171 161.73 69.4054 153.985C69.5463 152.88 69.6098 151.784 69.61 150.699C69.61 150.697 69.6112 150.696 69.6128 150.696V150.696C69.6144 150.696 69.6157 150.694 69.6157 150.693V78.1922C69.6157 73.7739 73.1975 70.1922 77.6157 70.1922H130.969C135.388 70.1922 138.969 73.7739 138.969 78.1922V115.949C138.969 121.483 133.367 125.428 127.834 125.34C127.634 125.337 127.434 125.335 127.234 125.335C117.144 125.335 106.852 129.258 98.9974 136.098C84.3499 148.85 82.5167 168.004 94.9102 178.796C100.246 183.442 107.634 186 115.713 186C125.803 186 136.095 182.077 143.95 175.237C150.795 169.278 155.109 161.73 156.097 153.985C156.238 152.88 156.302 151.784 156.302 150.699C156.302 150.697 156.303 150.696 156.305 150.696V150.696C156.307 150.696 156.308 150.694 156.308 150.693V78.1922C156.308 73.7739 159.89 70.1922 164.308 70.1922H217.662C222.08 70.1922 225.662 73.7739 225.662 78.1922V115.949C225.662 121.483 220.059 125.428 214.526 125.34C214.326 125.337 214.127 125.335 213.926 125.335C203.837 125.335 193.544 129.258 185.69 136.098C171.042 148.85 169.209 168.004 181.602 178.796C186.938 183.442 194.326 186 202.406 186C212.495 186 222.787 182.077 230.643 175.237C237.488 169.278 241.802 161.73 242.79 153.985C242.931 152.88 242.994 151.784 242.994 150.699C242.994 150.697 242.996 150.696 242.997 150.696V150.696C242.999 150.696 243 150.694 243 150.693V48C243 43.5817 239.418 40 235 40H60.2773Z" fill="white"/>
</svg>
