<svg xmlns="http://www.w3.org/2000/svg" width="9529" height="1080" viewBox="0 0 9529 1080"><defs fill="#000000"><clipPath id="a" fill="#000000"><path d="M52 0h9425v1080H52Zm0 0" fill="#000000"/></clipPath><clipPath id="b" fill="#000000"><path d="M67.852 651.063 52.715 788.938l15.137 137.87c0 7.66 7.57 7.66 7.57 7.66 7.57 0 7.57-7.66 7.57-7.66l22.707-137.87-22.707-137.875c0-7.66-7.57-7.66-7.57-7.66s-7.57 0-7.57 7.66m90.828-84.254-22.707 222.129 22.707 222.125c0 7.66 7.57 7.66 7.57 7.66 7.57 0 7.57-7.66 7.57-7.66l30.278-222.125-30.278-222.13c0-7.66-7.57-7.66-7.57-7.66zm287.629-30.636-15.137 252.765 15.137 268.083c0 7.66 7.57 15.32 15.136 15.32 7.57 0 15.14-7.66 15.14-15.32l30.278-268.082-22.707-252.766c0-7.66-7.57-15.32-15.14-15.32-15.137 0-22.707 7.66-22.707 15.32m-189.227-15.32-22.71 268.086 22.71 252.765c0 7.66 7.566 15.317 15.137 15.317 0 0 7.57-7.657 7.57-15.317l22.707-252.765-22.707-268.086c0-7.66-7.57-15.32-15.14-15.32 0 7.66-7.567 7.66-7.567 15.32m90.828-7.66-22.707 275.746 22.707 260.425c0 7.657 7.57 15.317 15.137 15.317 7.57 0 15.14-7.66 15.14-15.317l22.708-260.426-22.707-275.746c0-7.66-7.57-15.32-15.141-15.32-7.567 0-7.567 7.66-15.137 15.32m196.797-137.87L522 788.937l22.707 268.082c0 7.66 7.57 15.32 15.14 15.32 15.137 0 22.708-7.66 22.708-15.32l22.707-268.082-22.707-413.618c0-7.66-7.57-15.32-15.14-15.32-15.138 0-22.708 7.66-22.708 15.32m98.398-91.918L627.97 788.938l15.136 268.082q0 22.98 22.707 22.98c7.57 0 22.708-7.66 22.708-22.98l22.707-268.082-22.707-505.536q.002-22.975-22.707-22.976-22.707.001-22.708 22.976m4670.157-30.636V697.02c-7.57-15.317-30.278-53.618-45.414-76.594l-242.211-367.66H4896.96v697.023h136.242V490.211c7.57 15.32 30.277 53.617 45.414 76.598l249.785 382.98h121.106V252.766Zm454.148 137.87h75.692c143.812 0 204.367 68.938 204.367 214.47 0 130.214-68.121 214.468-211.938 214.468h-68.12ZM5631.164 949.79h204.367c174.09 0 355.75-99.578 355.75-344.684 0-252.765-143.812-344.68-340.61-344.68h-219.507v-7.66ZM6986.04 252.766v697.023h416.305V811.914h-272.489V252.766Zm2073.945 137.87h75.692c143.812 0 204.367 68.938 204.367 214.47 0 130.214-68.125 214.468-211.938 214.468h-68.12ZM8923.738 949.79h204.367c151.383 0 310.336-76.598 348.18-260.426V513.191c-30.277-183.828-158.95-252.765-333.039-252.765h-219.508v-7.66ZM2815.45 451.914c0 137.875 90.828 176.172 211.934 206.809 128.676 30.64 151.383 45.957 151.383 91.914 0 53.617-37.844 76.597-121.106 76.597-68.12 0-128.676-22.98-174.09-76.597l-98.398 91.918c52.984 76.593 151.383 130.21 264.918 130.21 189.23 0 272.488-91.913 272.488-222.128 0-153.192-121.105-191.489-227.074-214.465-105.965-22.98-136.242-38.3-136.242-84.258 0-30.637 22.707-61.277 98.398-61.277 60.555 0 113.535 22.98 158.953 68.937L3315.012 360c-68.125-68.937-143.817-107.234-249.782-107.234h-22.707c-128.675 0-227.074 76.597-227.074 199.148m756.91 153.191c0-122.55 45.418-222.125 158.954-222.125 113.539 0 158.953 99.575 158.953 222.125 0 122.555-45.414 222.13-158.954 222.13-113.535 0-158.953-99.575-158.953-222.13m-143.812 0c0 214.47 113.539 360 295.195 360 189.23 0 302.766-145.53 302.766-360 0-214.468-113.535-360-302.766-360-181.656 0-295.195 145.532-295.195 360m1158.078-360v398.297c0 114.895-52.984 183.832-143.812 183.832-90.833 0-143.813-68.937-143.813-183.832V252.766h-136.246v390.636c0 199.153 113.535 314.043 280.059 314.043 174.09 0 280.058-114.89 280.058-321.699v-390.64Zm1718.195 360c0 222.13 121.106 360 302.766 360 128.672 0 204.363-61.277 257.348-160.851l-113.536-68.934c-37.847 61.278-75.691 91.914-136.246 91.914-105.968 0-166.52-91.914-166.52-222.129 0-130.21 60.552-222.125 158.954-222.125 60.55 0 98.398 30.637 128.672 76.594l128.676-61.277c-45.414-91.914-121.106-153.192-249.782-153.192-181.656 0-310.332 145.532-310.332 360m1301.89 0c0-122.55 45.415-222.125 158.95-222.125 113.54 0 158.953 99.575 158.953 222.125 0 122.555-45.414 222.13-158.953 222.13-113.535 0-158.95-99.575-158.95-222.13m-143.815 0c0 214.47 113.539 360 295.199 360 189.226 0 295.195-145.53 295.195-360 0-214.468-113.539-360-295.195-360-181.66 0-295.2 145.532-295.2 360m1150.512-360v398.297c0 114.895-52.984 183.832-143.816 183.832-90.828 0-143.813-68.937-143.813-183.832V252.766h-136.242v390.636c0 199.153 113.535 314.043 280.055 314.043 174.09 0 280.058-114.89 280.058-321.699v-390.64Zm-7569.136 15.32-15.137 528.513 15.137 252.765c0 15.317 15.14 30.637 30.277 30.637s30.277-15.32 30.277-30.637l15.137-252.765-15.137-536.172c0-15.32-15.14-30.637-30.277-30.637-22.707 7.66-30.277 15.316-30.277 38.297m-302.766-22.98-15.137 551.492 15.137 260.425q0 22.976 22.707 22.977 22.708 0 22.707-22.977l15.14-260.426-15.14-551.492c0-15.316-7.566-22.976-22.707-22.976-15.137 0-22.707 15.32-22.707 22.976m196.797 0-15.137 551.493 15.137 260.425c0 15.317 15.14 30.637 30.277 30.637 15.14 0 30.277-15.32 30.277-30.637l15.137-260.426-15.137-551.492c0-15.316-15.136-30.636-30.277-30.636-15.137 0-30.277 15.32-30.277 30.636m-98.399-15.316-15.136 566.809 15.136 260.425q0 22.976 22.707 22.977 22.711 0 22.711-22.977l15.137-260.426L885.32 222.13c0-15.32-15.14-22.98-22.71-22.98-7.567 0-22.708 7.66-22.708 22.98m302.766-68.938-15.137 635.747 15.137 252.765c0 15.317 15.14 30.637 30.277 30.637s30.278-15.32 30.278-30.637l15.136-252.765-15.136-635.747c0-15.32-15.141-30.636-30.278-30.636s-30.277 15.316-30.277 30.636m105.969-53.617L1233.5 788.938l15.137 252.765c0 15.317 15.136 30.637 30.277 30.637 15.137 0 30.277-15.32 30.277-30.637l15.137-252.765-15.137-689.364c0-15.32-15.14-30.636-30.277-30.636h-7.57c-15.137 0-22.707 15.316-22.707 30.636m121.105-68.937c-22.707 7.66-30.277 15.32-30.277 38.3v972.766c0 15.317 15.14 30.637 30.277 38.297h840.176c166.52 0 302.766-137.871 302.766-306.383s-136.247-306.383-302.766-306.383c-37.848 0-83.262 7.66-113.54 22.977C2073.673 214.469 1846.599 0 1566.54 0h-37.844c-52.984 0-105.968 15.32-158.953 30.637" fill="#000000"/></clipPath><linearGradient id="c" gradientUnits="userSpaceOnUse" x1="0" y1="14.126" x2="1" y2="14.126" gradientTransform="scale(4704.6411 4760.85445)rotate(90 7.859 7.28)" fill="#000000"><stop offset="0" style="stop-color:#0d0d0d;stop-opacity:1" fill="#000000"/><stop offset=".713" style="stop-color:#000000;stop-opacity:1" fill="#000000"/><stop offset="1" style="stop-color:#000000;stop-opacity:1" fill="#000000"/></linearGradient></defs><g clip-path="url(#a)"><g clip-path="url(#b)"><path style="stroke:none;fill-rule:nonzero;fill:url(#c)" d="M52.715 0h9423.57v1080H52.715Zm0 0"/></g></g></svg>